<svg id="_x31__x2C_5" enable-background="new 0 0 24 24" height="512" viewBox="0 0 24 24" width="512" xmlns="http://www.w3.org/2000/svg"><g><path d="m6.75 20c-.197 0-.388-.077-.53-.22-.177-.178-.254-.432-.205-.678l.67-3.351c.029-.145.1-.278.205-.383l7.372-7.372c.662-.661 1.739-.662 2.4 0l1.341 1.341c.661.662.661 1.739 0 2.4l-7.373 7.373c-.104.104-.238.176-.383.205l-3.351.67c-.048.01-.097.015-.146.015zm3.351-1.42h.01zm-1.99-2.31-.405 2.024 2.025-.405 7.211-7.211c.077-.077.077-.203 0-.28l-1.34-1.34c-.077-.076-.202-.077-.28 0z"/></g><g><path d="m21.25 23h-18.5c-1.517 0-2.75-1.233-2.75-2.75v-16.5c0-1.517 1.233-2.75 2.75-2.75h18.5c1.517 0 2.75 1.233 2.75 2.75v16.5c0 1.517-1.233 2.75-2.75 2.75zm-18.5-20.5c-.689 0-1.25.561-1.25 1.25v16.5c0 .689.561 1.25 1.25 1.25h18.5c.689 0 1.25-.561 1.25-1.25v-16.5c0-.689-.561-1.25-1.25-1.25z"/></g><g><path d="m23.25 6h-22.5c-.414 0-.75-.336-.75-.75s.336-.75.75-.75h22.5c.414 0 .75.336.75.75s-.336.75-.75.75z"/></g></svg>