<svg height="512pt" viewBox="0 0 512 512" width="512pt" xmlns="http://www.w3.org/2000/svg"><path d="m411.195312 312.390625c-31.488281 0-61.097656 15.042969-79.816406 39.921875h-132.902344l-51.761718 50.46875v19.980469l51.914062 49.316406h132.753906c18.714844 24.878906 48.328126 39.921875 79.816407 39.921875 55.03125 0 99.804687-44.773438 99.804687-99.804688s-44.773437-99.804687-99.808594-99.804687zm0 159.6875c-21.292968 0-41.164062-11.480469-51.855468-29.960937l-5.765625-9.960938h-55.433594l-28.890625-27.445312-26.074219 27.445312h-28.609375l-20.664062-19.628906 20.816406-20.292969h138.855469l5.765625-9.964844c10.691406-18.476562 30.5625-29.957031 51.855468-29.957031 33.019532 0 59.882813 26.863281 59.882813 59.882812 0 33.019532-26.863281 59.882813-59.882813 59.882813zm39.921876-59.882813c0 11.023438-8.933594 19.960938-19.960938 19.960938-11.023438 0-19.960938-8.9375-19.960938-19.960938 0-11.023437 8.9375-19.960937 19.960938-19.960937 11.027344 0 19.960938 8.9375 19.960938 19.960937zm0-309.394531h-104.792969v-37.542969c0-35.984374-29.246094-65.257812-65.191407-65.257812h-51.261718c-35.949219 0-65.191406 29.273438-65.191406 65.257812v37.542969h-104.796876c-33.019531 0-59.882812 26.863281-59.882812 59.882813v288.433594c0 33.019531 26.863281 59.882812 59.882812 59.882812h121.753907l-42.023438-39.921875h-79.730469c-11.007812 0-19.960937-8.953125-19.960937-19.960937v-288.433594c0-11.007813 8.953125-19.960938 19.960937-19.960938h104.796876v116.769532h39.921874v-116.769532h101.800782v116.769532h39.921875v-116.769532h104.792969c11.007812 0 19.960937 8.953125 19.960937 19.960938v123.285156c14.960937 7.125 28.460937 16.832031 39.921875 28.546875v-151.832031c0-33.019532-26.863281-59.882813-59.882812-59.882813zm-246.515626 0v-37.542969c0-13.96875 11.335938-25.335937 25.269532-25.335937h51.261718c13.933594 0 25.269532 11.367187 25.269532 25.335937v37.542969zm0 0"/></svg>