<svg id="Capa_1" enable-background="new 0 0 512 512" height="512" viewBox="0 0 512 512" width="512" xmlns="http://www.w3.org/2000/svg"><circle cx="256" cy="129.5" r="7.5"/><circle cx="286" cy="129.5" r="7.5"/><circle cx="226" cy="129.5" r="7.5"/><path d="m474.5 122h-23.5v-114.5c0-4.143-3.358-7.5-7.5-7.5h-375c-4.142 0-7.5 3.357-7.5 7.5v114.5h-23.5c-20.678 0-37.5 16.822-37.5 37.5v315c0 20.678 16.822 37.5 37.5 37.5h437c20.678 0 37.5-16.822 37.5-37.5v-315c0-20.678-16.822-37.5-37.5-37.5zm-146.893 195 167.194-167.195c1.408 2.938 2.199 6.225 2.199 9.694v315c0 3.469-.79 6.757-2.199 9.694zm-266.607-180v11.074c0 4.143 3.358 7.5 7.5 7.5s7.5-3.357 7.5-7.5v-133.074h360v133.074c0 4.143 3.358 7.5 7.5 7.5s7.5-3.357 7.5-7.5v-11.074h23.5c3.469 0 6.757.79 9.694 2.199l-191.071 191.072c-9.916 9.916-23.1 15.377-37.123 15.377s-27.207-5.461-37.123-15.377l-191.071-191.072c2.937-1.409 6.225-2.199 9.694-2.199zm-43.801 347.194c-1.409-2.937-2.199-6.225-2.199-9.694v-315c0-3.469.79-6.757 2.199-9.694l167.194 167.194zm20.301 12.806c-3.469 0-6.757-.791-9.695-2.199l167.195-167.194 13.271 13.271c12.749 12.749 29.7 19.77 47.729 19.77s34.98-7.021 47.729-19.77l13.271-13.271 167.194 167.194c-2.937 1.408-6.225 2.199-9.694 2.199z"/></svg>